nColumns=28
nRows=80
DataType=double
version=3
OpenSimVersion=4.1
endheader
time	ground_force_1_vx	ground_force_1_vy	ground_force_1_vz	ground_force_1_px	ground_force_1_py	ground_force_1_pz	ground_force_1_mx	ground_force_1_my	ground_force_1_mz	ground_force_2_vx	ground_force_2_vy	ground_force_2_vz	ground_force_2_px	ground_force_2_py	ground_force_2_pz	ground_force_2_mx	ground_force_2_my	ground_force_2_mz	ground_force_3_vx	ground_force_3_vy	ground_force_3_vz	ground_force_3_px	ground_force_3_py	ground_force_3_pz	ground_force_3_mx	ground_force_3_my	ground_force_3_mz
1.5	0	0	0	0	0	0	0	0	0	-43.8725	30.1184	10.3529	-0.103003	0.006	-0.630553	0	-6.84137	0	0	0	0	0	0	0	0	0	0
1.51	-61.3686	55.0728	-12.4195	-0.157304	0.006	-0.399319	0	1.90613	0	-234.208	287.068	50.6717	-0.158964	0.006	-0.755122	0	-4.00219	0	0	0	0	0	0	0	0	0	0
1.52	-268.103	352.328	-70.0072	-0.181716	0.006	-0.37829	0	1.70892	0	-254.136	529.342	90.7937	-0.195547	0.006	-0.757983	0	-3.81805	0	0	0	0	0	0	0	0	0	0
1.53	-244.435	525.059	-99.2716	-0.206648	0.006	-0.380454	0	2.69187	0	-56.5648	961.404	100.275	-0.255537	0.006	-0.751443	0	1.28594	0	0	0	0	0	0	0	0	0	0
1.54	-62.6285	749.842	-81.2884	-0.259754	0.006	-0.395749	0	0.720316	0	3.85555	1228.25	66.7467	-0.274846	0.006	-0.747336	0	5.44909	0	0	0	0	0	0	0	0	0	0
1.55	-0.47948	934.084	-41.4807	-0.285658	0.006	-0.407676	0	-2.23158	0	-173.429	841.234	68.0625	-0.252166	0.006	-0.747402	0	4.67695	0	0	0	0	0	0	0	0	0	0
1.56	-100.072	679.541	-33.7971	-0.272493	0.006	-0.408396	0	-2.22188	0	-323.441	497.625	73.6921	-0.198997	0.006	-0.749164	0	-0.037773	0	0	0	0	0	0	0	0	0	0
1.57	-226.682	410.157	-38.9202	-0.227372	0.006	-0.403471	0	-1.11486	0	-331.276	388.647	52.6255	-0.170592	0.006	-0.74643	0	-1.68539	0	0	0	0	0	0	0	0	0	0
1.58	-253.22	319.018	-24.9811	-0.199136	0.006	-0.404291	0	-1.26249	0	-296.855	384.728	30.5506	-0.174562	0.006	-0.741995	0	-0.163157	0	0	0	0	0	0	0	0	0	0
1.59	-231.843	333.962	-0.558647	-0.209424	0.006	-0.412273	0	-2.43839	0	-234.458	501.575	14.9374	-0.209115	0.006	-0.737821	0	2.38644	0	0	0	0	0	0	0	0	0	0
1.6	-184.581	400.009	7.43337	-0.233124	0.006	-0.417852	0	-2.67699	0	-106.852	744.878	10.4715	-0.249561	0.006	-0.735808	0	4.07648	0	0	0	0	0	0	0	0	0	0
1.61	-120.582	514.832	-26.2007	-0.257281	0.006	-0.417297	0	-2.10096	0	-0.458881	875.877	29.3641	-0.265684	0.006	-0.736497	0	4.08437	0	0	0	0	0	0	0	0	0	0
1.62	-59.0324	621.055	-53.2552	-0.272126	0.006	-0.416988	0	-2.0544	0	-18.8323	799.611	52.2139	-0.2602	0.006	-0.738712	0	3.96173	0	0	0	0	0	0	0	0	0	0
1.63	-41.7297	635.42	-54.2435	-0.27432	0.006	-0.417125	0	-2.65158	0	-85.2476	669.853	59.0248	-0.244006	0.006	-0.740801	0	4.70891	0	0	0	0	0	0	0	0	0	0
1.64	-66.2845	589.515	-48.7986	-0.267757	0.006	-0.416132	0	-3.48031	0	-113.327	602.193	57.8786	-0.231967	0.006	-0.741929	0	5.59285	0	0	0	0	0	0	0	0	0	0
1.65	-78.3734	556.597	-52.4893	-0.262049	0.006	-0.413711	0	-3.92361	0	-102.599	585.112	61.6938	-0.227743	0.006	-0.743233	0	6.01981	0	0	0	0	0	0	0	0	0	0
1.66	-61.6087	548.118	-61.5132	-0.261097	0.006	-0.410974	0	-3.81044	0	-81.5439	590.373	69.3342	-0.226477	0.006	-0.744841	0	6.23197	0	0	0	0	0	0	0	0	0	0
1.67	-45.6803	537.121	-69.3403	-0.259679	0.006	-0.40829	0	-3.77007	0	-63.1317	614.937	73.0336	-0.226476	0.006	-0.745732	0	6.78957	0	0	0	0	0	0	0	0	0	0
1.68	-48.1284	517.667	-75.6283	-0.255027	0.006	-0.405225	0	-4.19509	0	-47.3319	645.341	70.2031	-0.226653	0.006	-0.745899	0	7.70848	0	0	0	0	0	0	0	0	0	0
1.69	-56.5546	503.218	-78.3449	-0.24994	0.006	-0.402508	0	-4.89805	0	-43.3557	658.608	67.3739	-0.224406	0.006	-0.746274	0	8.38477	0	0	0	0	0	0	0	0	0	0
1.7	-59.4742	500.509	-77.9363	-0.246761	0.006	-0.400867	0	-5.72848	0	-51.4544	652.352	67.5942	-0.219804	0.006	-0.746945	0	8.51487	0	0	0	0	0	0	0	0	0	0
1.71	-58.7659	514.747	-77.3523	-0.245489	0.006	-0.400226	0	-6.72202	0	-62.268	639.982	68.3618	-0.21471	0.006	-0.747486	0	8.30344	0	0	0	0	0	0	0	0	0	0
1.72	-53.3667	542.791	-77.1847	-0.24614	0.006	-0.400438	0	-7.75696	0	-69.8354	632.091	69.1626	-0.210581	0.006	-0.747745	0	7.93671	0	0	0	0	0	0	0	0	0	0
1.73	-43.7569	569.809	-76.2024	-0.247384	0.006	-0.401092	0	-8.63708	0	-72.6028	631.544	71.412	-0.207836	0.006	-0.747975	0	7.41815	0	0	0	0	0	0	0	0	0	0
1.74	-39.5857	584.476	-74.8911	-0.247341	0.006	-0.401801	0	-9.35807	0	-72.1299	635.851	74.1291	-0.20587	0.006	-0.748071	0	6.8793	0	0	0	0	0	0	0	0	0	0
1.75	-41.6861	590.128	-74.3481	-0.246067	0.006	-0.402617	0	-9.79113	0	-72.5716	640.185	74.5167	-0.203929	0.006	-0.747746	0	6.61051	0	0	0	0	0	0	0	0	0	0
1.76	-41.6913	593.476	-74.671	-0.24498	0.006	-0.403645	0	-9.84701	0	-75.3544	641.662	71.7683	-0.202043	0.006	-0.747065	0	6.64275	0	0	0	0	0	0	0	0	0	0
1.77	-37.5702	597.707	-74.8745	-0.244553	0.006	-0.404815	0	-9.68094	0	-77.2074	639.291	67.0748	-0.200675	0.006	-0.746034	0	6.81851	0	0	0	0	0	0	0	0	0	0
1.78	-32.4666	602.665	-73.5938	-0.244221	0.006	-0.405999	0	-9.49871	0	-76.0957	635.623	62.1063	-0.199946	0.006	-0.744859	0	7.01182	0	0	0	0	0	0	0	0	0	0
1.79	-28.5787	606.126	-71.4797	-0.243517	0.006	-0.407137	0	-9.31314	0	-72.5936	631.852	58.2382	-0.199771	0.006	-0.743589	0	7.17819	0	0	0	0	0	0	0	0	0	0
1.8	-26.5226	605.422	-70.1475	-0.242343	0.006	-0.408036	0	-8.98916	0	-69.1066	625.676	55.766	-0.199725	0.006	-0.742472	0	7.38432	0	0	0	0	0	0	0	0	0	0
1.81	-25.1451	600.569	-69.8651	-0.240978	0.006	-0.408675	0	-8.47597	0	-67.3138	614.04	53.4739	-0.199278	0.006	-0.7414	0	7.55014	0	0	0	0	0	0	0	0	0	0
1.82	-23.5935	592.768	-69.7207	-0.239742	0.006	-0.409281	0	-7.8505	0	-66.0725	598.55	50.9301	-0.198585	0.006	-0.74036	0	7.49475	0	0	0	0	0	0	0	0	0	0
1.83	-21.5105	583.128	-69.2878	-0.238476	0.006	-0.409882	0	-7.26268	0	-62.8842	584.837	50.3388	-0.198179	0.006	-0.739625	0	7.16816	0	0	0	0	0	0	0	0	0	0
1.84	-19.5765	571.731	-67.9319	-0.23693	0.006	-0.410639	0	-6.84104	0	-56.2713	574.782	52.6578	-0.198379	0.006	-0.739334	0	6.71671	0	0	0	0	0	0	0	0	0	0
1.85	-18.7168	556.82	-65.3803	-0.235128	0.006	-0.411621	0	-6.58674	0	-48.6277	566.512	55.6224	-0.199031	0.006	-0.73937	0	6.33769	0	0	0	0	0	0	0	0	0	0
1.86	-17.5116	536.891	-62.5465	-0.233389	0.006	-0.41257	0	-6.47752	0	-41.8897	556.578	57.4282	-0.199816	0.006	-0.739557	0	6.14546	0	0	0	0	0	0	0	0	0	0
1.87	-14.9668	513.112	-60.1471	-0.231955	0.006	-0.413444	0	-6.46296	0	-37.0233	542.567	58.5405	-0.200352	0.006	-0.739904	0	6.00139	0	0	0	0	0	0	0	0	0	0
1.88	-15.1935	488.593	-58.3743	-0.230543	0.006	-0.414217	0	-6.51714	0	-34.4897	526.566	59.5101	-0.20073	0.006	-0.74043	0	5.77821	0	0	0	0	0	0	0	0	0	0
1.89	-17.0415	466.188	-56.2946	-0.229396	0.006	-0.415065	0	-6.68715	0	-32.2162	511.09	60.6795	-0.201293	0.006	-0.74102	0	5.48479	0	0	0	0	0	0	0	0	0	0
1.9	-16.6836	446.839	-54.0561	-0.229219	0.006	-0.416268	0	-6.90281	0	-29.3227	497.298	61.4481	-0.202208	0.006	-0.741622	0	5.22082	0	0	0	0	0	0	0	0	0	0
1.91	-14.4577	430.648	-52.1351	-0.230088	0.006	-0.417531	0	-7.11568	0	-26.334	485.183	60.8536	-0.203923	0.006	-0.742141	0	5.02633	0	0	0	0	0	0	0	0	0	0
1.92	-11.7164	417.059	-50.7893	-0.231603	0.006	-0.418682	0	-7.35706	0	-23.1142	474.147	59.1605	-0.206559	0.006	-0.742286	0	4.9662	0	0	0	0	0	0	0	0	0	0
1.93	-7.96752	405.301	-50.1698	-0.233925	0.006	-0.420013	0	-7.60904	0	-19.392	464.464	57.9528	-0.20972	0.006	-0.74239	0	4.93962	0	0	0	0	0	0	0	0	0	0
1.94	-2.83556	396.797	-50.7572	-0.237082	0.006	-0.421534	0	-7.85556	0	-14.9396	456.177	57.2477	-0.213741	0.006	-0.742558	0	4.95523	0	0	0	0	0	0	0	0	0	0
1.95	3.52754	392.644	-52.3307	-0.241183	0.006	-0.42303	0	-8.09133	0	-9.07541	448.474	56.5973	-0.218427	0.006	-0.742447	0	5.03505	0	0	0	0	0	0	0	0	0	0
1.96	11.6167	391.2	-53.6874	-0.246181	0.006	-0.424547	0	-8.29788	0	-2.33927	441.147	56.0004	-0.223516	0.006	-0.742232	0	5.1981	0	0	0	0	0	0	0	0	0	0
1.97	20.7379	390.5	-53.8228	-0.251614	0.006	-0.426469	0	-8.43677	0	3.70194	434.721	55.3253	-0.228713	0.006	-0.742004	0	5.44762	0	0	0	0	0	0	0	0	0	0
1.98	29.4653	389.91	-53.1858	-0.257174	0.006	-0.428497	0	-8.5266	0	8.41674	430.142	54.3861	-0.233826	0.006	-0.741457	0	5.81271	0	0	0	0	0	0	0	0	0	0
1.99	37.4922	390.442	-53.0025	-0.262817	0.006	-0.430451	0	-8.5973	0	12.1222	428.353	53.9059	-0.239147	0.006	-0.740722	0	6.18993	0	0	0	0	0	0	0	0	0	0
2	44.8631	394.711	-53.2491	-0.268223	0.006	-0.432091	0	-8.61474	0	15.6845	430.528	55.0556	-0.244372	0.006	-0.740359	0	6.52162	0	0	0	0	0	0	0	0	0	0
2.01	51.5841	404.998	-55.252	-0.272053	0.006	-0.432902	0	-8.51941	0	20.0965	440.09	57.7519	-0.248415	0.006	-0.740352	0	6.91823	0	0	0	0	0	0	0	0	0	0
2.02	54.978	421.091	-59.7342	-0.272294	0.006	-0.432407	0	-8.27539	0	21.9371	455.824	61.8348	-0.249438	0.006	-0.741	0	7.24962	0	0	0	0	0	0	0	0	0	0
2.03	50.0329	438.736	-65.4308	-0.267447	0.006	-0.430603	0	-7.79898	0	17.5213	470.298	68.3128	-0.247018	0.006	-0.742603	0	7.38649	0	0	0	0	0	0	0	0	0	0
2.04	35.7813	454.688	-72.6645	-0.257828	0.006	-0.427149	0	-7.00524	0	9.29767	482.978	76.5582	-0.241955	0.006	-0.744967	0	7.20214	0	0	0	0	0	0	0	0	0	0
2.05	18.6873	468.345	-81.0573	-0.246157	0.006	-0.42264	0	-5.93202	0	1.09087	497.565	85.9516	-0.235493	0.006	-0.747679	0	6.66515	0	0	0	0	0	0	0	0	0	0
2.06	2.52593	482.737	-87.9342	-0.234683	0.006	-0.417995	0	-4.76949	0	-7.53887	514.08	94.8818	-0.228318	0.006	-0.750411	0	5.88103	0	0	0	0	0	0	0	0	0	0
2.07	-13.2408	497.866	-93.3902	-0.224199	0.006	-0.413635	0	-3.60108	0	-17.9827	529.571	102.052	-0.220621	0.006	-0.752774	0	4.83751	0	0	0	0	0	0	0	0	0	0
2.08	-28.0438	510.852	-98.5433	-0.214666	0.006	-0.40948	0	-2.22618	0	-29.7373	541.921	107.828	-0.212805	0.006	-0.754874	0	3.54129	0	0	0	0	0	0	0	0	0	0
2.09	-41.9328	521.537	-103.385	-0.20608	0.006	-0.405406	0	-0.709848	0	-41.9586	551.82	112.374	-0.20546	0.006	-0.756716	0	2.08138	0	0	0	0	0	0	0	0	0	0
2.1	-55.9428	528.521	-106.925	-0.198316	0.006	-0.401548	0	0.788697	0	-53.0464	560.342	114.855	-0.199321	0.006	-0.758092	0	0.609132	0	0	0	0	0	0	0	0	0	0
2.11	-69.0447	530.577	-106.907	-0.191517	0.006	-0.398402	0	2.18793	0	-62.4182	564.776	115.036	-0.194127	0.006	-0.758823	0	-0.908692	0	0	0	0	0	0	0	0	0	0
2.12	-78.3274	526.944	-103.369	-0.186237	0.006	-0.396052	0	3.31993	0	-71.4129	562.478	113.3	-0.189068	0.006	-0.759089	0	-2.54644	0	0	0	0	0	0	0	0	0	0
2.13	-83.428	512.481	-95.9283	-0.182025	0.006	-0.394262	0	4.18819	0	-79.0289	550.891	107.703	-0.183887	0.006	-0.758962	0	-4.10496	0	0	0	0	0	0	0	0	0	0
2.14	-84.1735	479.784	-82.9204	-0.177744	0.006	-0.39274	0	4.62396	0	-82.4494	526.668	96.1358	-0.178581	0.006	-0.758368	0	-5.19659	0	0	0	0	0	0	0	0	0	0
2.15	-77.8859	423.593	-62.1832	-0.172502	0.006	-0.391308	0	4.20596	0	-79.8391	485.172	77.6736	-0.173039	0.006	-0.757247	0	-5.45521	0	0	0	0	0	0	0	0	0	0
2.16	-59.5551	338.182	-32.3823	-0.165802	0.006	-0.390574	0	2.76338	0	-69.6028	420.624	52.6813	-0.166638	0.006	-0.755269	0	-4.59571	0	0	0	0	0	0	0	0	0	0
2.17	-27.3026	219.455	1.12873	-0.156578	0.006	-0.392257	0	0.875885	0	-49.4235	324.558	23.4666	-0.158692	0.006	-0.751112	0	-2.66233	0	0	0	0	0	0	0	0	0	0
2.18	4.44746	89.873	21.3329	-0.139349	0.006	-0.402609	0	-0.558269	0	-18.1062	194.938	-2.30542	-0.147622	0.006	-0.740142	0	-0.499704	0	0	0	0	0	0	0	0	0	0
2.19	0	0	0	0	0	0	0	0	0	9.02061	66.0463	-12.0628	-0.126024	0.006	-0.693781	0	1.23824	0	0	0	0	0	0	0	0	0	0
2.2	0	0	0	0	0	0	0	0	0	0	0	0	0	0	0	0	0	0	0	0	0	0	0	0	0	0	0
2.21	0	0	0	0	0	0	0	0	0	0	0	0	0	0	0	0	0	0	0	0	0	0	0	0	0	0	0
2.22	0	0	0	0	0	0	0	0	0	0	0	0	0	0	0	0	0	0	0	0	0	0	0	0	0	0	0
2.23	0	0	0	0	0	0	0	0	0	0	0	0	0	0	0	0	0	0	0	0	0	0	0	0	0	0	0
2.24	0	0	0	0	0	0	0	0	0	0	0	0	0	0	0	0	0	0	0	0	0	0	0	0	0	0	0
2.25	0	0	0	0	0	0	0	0	0	0	0	0	0	0	0	0	0	0	0	0	0	0	0	0	0	0	0
2.26	0	0	0	0	0	0	0	0	0	0	0	0	0	0	0	0	0	0	0	0	0	0	0	0	0	0	0
2.27	0	0	0	0	0	0	0	0	0	0	0	0	0	0	0	0	0	0	0	0	0	0	0	0	0	0	0
2.28	0	0	0	0	0	0	0	0	0	0	0	0	0	0	0	0	0	0	0	0	0	0	0	0	0	0	0
2.29	0	0	0	0	0	0	0	0	0	0	0	0	0	0	0	0	0	0	0	0	0	0	0	0	0	0	0
